# xmcd
#
# Track frame offsets:
#	150
#	13532
#	27915
#	38924
#	51318
#	63402
#	75284
#	85003
#	96429
#	110458
#	121951
#	131253
#	142051
#	155436
#	167192
#	178719
#	192250
#	206764
#	218751
#	230961
#	245490
#	257718
#	266156
#	278230
#	290283
#	302083
#	319082
#
# Disc length: 4404 seconds
#
# Revision: 0
# Processed by: cddbd v1.5.2PL0 Copyright (c) Steve Scherf et al.
# Submitted via: audiograbber 1.83.01
#
DISCID=8b11321b
DTITLE=Various Artist - Legends of Country music Disc 5
DYEAR=2005
DGENRE=Country
TTITLE0=Behind closed doors - Charlie Rich
TTITLE1=Old flame - Alabama
TTITLE2=This Time - Waylon Jennings
TTITLE3=I walk the line - Johnny Cash
TTITLE4=Sweet Desire - The Kendalls
TTITLE5=Please don't tell me how the story ends - Bobby Bare
TTITLE6=Don't come home a'drinking - Loretta Lynn
TTITLE7=The Cattle Call - Eddie Arnold
TTITLE8=If I let her come in - Ray Griff
TTITLE9=Curly headed baby - Gene Martin
TTITLE10=Comin' down - Dave Dudley
TTITLE11=Old man from the mountain - Merle Heggard
TTITLE12=D-I-V-O-R-C-E - Tammy Wynette
TTITLE13=A poem for my little lady - Kenny Rogers
TTITLE14=Crazy dreams - Patsy Cline
TTITLE15=The games that daddies play - Conway Twitty
TTITLE16=If I said you had a beautiful body - Bellamy Brothers
TTITLE17=You're my man - Lynn Anderson
TTITLE18=I take a lot of pride in what I am - Charlie Pride
TTITLE19=Yesterday's wine - Willie Nelson
TTITLE20=Do not forsake me - Frankie Laine
TTITLE21=Guess things happen this way - Johnny Cash
TTITLE22=She needs someone to hold her - Conway Twitty
TTITLE23=It don't feel like sinnin' to me - The Kendalls
TTITLE24=Turning off a memory - Merle Haggard
TTITLE25=Old paint - Rebecca Holden
TTITLE26=Adios Amigo - Jim Reeves
EXTD=
EXTT0=
EXTT1=
EXTT2=
EXTT3=
EXTT4=
EXTT5=
EXTT6=
EXTT7=
EXTT8=
EXTT9=
EXTT10=
EXTT11=
EXTT12=
EXTT13=
EXTT14=
EXTT15=
EXTT16=
EXTT17=
EXTT18=
EXTT19=
EXTT20=
EXTT21=
EXTT22=
EXTT23=
EXTT24=
EXTT25=
EXTT26=
PLAYORDER=
